<?xml version="1.0" standalone="no"?><!DOCTYPE svg PUBLIC "-//W3C//DTD SVG 1.1//EN" "http://www.w3.org/Graphics/SVG/1.1/DTD/svg11.dtd"><svg t="1700976761290" class="icon" viewBox="0 0 1024 1024" version="1.1" xmlns="http://www.w3.org/2000/svg" p-id="3633" width="200" height="200" xmlns:xlink="http://www.w3.org/1999/xlink"><path d="M892.4 209.1H775.6c-24.9 0-47.7-13.6-59.7-35.4l-12.3-22.5c-11.9-21.8-34.8-35.4-59.7-35.4h-265c-25 0-48.1 13.8-59.9 35.8l-11.5 21.5c-11.8 22.1-34.9 35.8-59.9 35.8H132c-37.6 0-68 30.4-68 68v524c0 37.6 30.4 68 68 68h760.3c37.6 0 68-30.4 68-68v-524c0.1-37.3-30.4-67.8-67.9-67.8z m-381 467.4c-85.5 0-154.8-69.3-154.8-154.8s69.3-154.8 154.8-154.8 154.8 69.3 154.8 154.8S597 676.5 511.4 676.5z" fill="#e9e9e9" p-id="3634" data-spm-anchor-id="a313x.search_index.0.i0.21b13a81cG4Anx" class="selected"></path><path d="M511.4 521.7m-94 0a94 94 0 1 0 188 0 94 94 0 1 0-188 0Z" fill="#e9e9e9" p-id="3635" data-spm-anchor-id="a313x.search_index.0.i1.21b13a81cG4Anx" class=""></path></svg>