<?xml version="1.0" standalone="no"?><!DOCTYPE svg PUBLIC "-//W3C//DTD SVG 1.1//EN" "http://www.w3.org/Graphics/SVG/1.1/DTD/svg11.dtd"><svg t="1698642218413" class="icon" viewBox="0 0 1024 1024" version="1.1" xmlns="http://www.w3.org/2000/svg" p-id="24518" data-spm-anchor-id="a313x.search_index.0.i20.29f93a8100pTd3" xmlns:xlink="http://www.w3.org/1999/xlink" width="200" height="200"><path d="M782.628571 385.87733335a273.261714 273.261714 0 0 1-1.609142 30.573714 549.814857 549.814857 0 0 1-29.622858 128.146286 676.571429 676.571429 0 0 1-56.32 118.052571c-22.674286 37.741714-48.859429 74.020571-78.555428 108.836572s-61.878857 68.315429-96.475429 100.425143a23.113143 23.113143 0 0 1-18.578285 8.850285c-8.118857 0-14.628571-2.925714-19.456-8.777142-34.596571-32.182857-66.852571-65.901714-96.841143-101.302858-29.988571-35.328-56.466286-72.265143-79.433143-110.811428a686.518857 686.518857 0 0 1-56.758857-120.100572 535.405714 535.405714 0 0 1-28.745143-129.755428c0-4.315429-0.146286-8.338286-0.365714-12.068572a256.731429 256.731429 0 0 1 21.942857-118.125714c14.774857-33.133714 34.889143-62.098286 60.269714-86.747428a287.524571 287.524571 0 0 1 89.526857-58.587429c34.377143-14.482286 70.948571-21.723429 109.860572-21.723429 38.838857 0 75.337143 7.241143 109.348571 21.723429 34.084571 14.409143 63.780571 34.011429 89.161143 58.587429 25.380571 24.649143 45.494857 53.613714 60.342857 86.820571 14.848 33.133714 22.308571 68.534857 22.308571 106.057143zM501.467429 511.24419035c17.773714 0 34.523429-3.364571 50.176-10.093714 15.725714-6.656 29.330286-15.652571 40.96-26.916572 11.629714-11.190857 20.772571-24.502857 27.574857-39.716571 6.729143-15.286857 10.093714-31.451429 10.093714-48.64 0-17.115429-3.364571-33.28-10.093714-48.566857a125.293714 125.293714 0 0 0-27.574857-39.789714 133.705143 133.705143 0 0 0-40.96-26.916572 126.537143 126.537143 0 0 0-50.176-10.020571 126.537143 126.537143 0 0 0-50.249143 10.020571 138.971429 138.971429 0 0 0-41.325715 26.916572 122.221714 122.221714 0 0 0-38.107428 88.356571 122.221714 122.221714 0 0 0 38.034286 88.356571 138.971429 138.971429 0 0 0 41.398857 26.916572c15.652571 6.729143 32.402286 10.093714 50.249143 10.093714z" p-id="24519" data-spm-anchor-id="a313x.search_index.0.i19.29f93a8100pTd3" class="selected" fill="#ffffff"></path></svg>